{
    "asset" : {
        "generator" : "Khronos glTF Blender I/O v1.8.19",
        "version" : "2.0"
    },
    "scene" : 0,
    "scenes" : [
        {
            "name" : "Scene",
            "nodes" : [
                0
            ]
        }
    ],
    "nodes" : [
        {
            "mesh" : 0,
            "name" : "Curve.030"
        }
    ],
    "materials" : [
        {
            "doubleSided" : true,
            "name" : "Material.001",
            "pbrMetallicRoughness" : {
                "baseColorFactor" : [
                    0.8000000715255737,
                    0.0036363888066262007,
                    0.02760743908584118,
                    1
                ],
                "metallicFactor" : 0,
                "roughnessFactor" : 0.5
            }
        }
    ],
    "meshes" : [
        {
            "name" : "Curve.030",
            "primitives" : [
                {
                    "attributes" : {
                        "POSITION" : 0,
                        "NORMAL" : 1,
                        "TEXCOORD_0" : 2
                    },
                    "indices" : 3,
                    "material" : 0
                }
            ]
        }
    ],
    "accessors" : [
        {
            "bufferView" : 0,
            "componentType" : 5126,
            "count" : 2176,
            "max" : [
                0.09115803986787796,
                0.0010000003967434168,
                0.09113471955060959
            ],
            "min" : [
                0.0008602841990068555,
                -0.0010000003967434168,
                0.0008465050486847758
            ],
            "type" : "VEC3"
        },
        {
            "bufferView" : 1,
            "componentType" : 5126,
            "count" : 2176,
            "type" : "VEC3"
        },
        {
            "bufferView" : 2,
            "componentType" : 5126,
            "count" : 2176,
            "type" : "VEC2"
        },
        {
            "bufferView" : 3,
            "componentType" : 5123,
            "count" : 5832,
            "type" : "SCALAR"
        }
    ],
    "bufferViews" : [
        {
            "buffer" : 0,
            "byteLength" : 26112,
            "byteOffset" : 0
        },
        {
            "buffer" : 0,
            "byteLength" : 26112,
            "byteOffset" : 26112
        },
        {
            "buffer" : 0,
            "byteLength" : 17408,
            "byteOffset" : 52224
        },
        {
            "buffer" : 0,
            "byteLength" : 11664,
            "byteOffset" : 69632
        }
    ],
    "buffers" : [
        {
            "byteLength" : 81296,
            "uri" : "data:application/octet-stream;base64,"
        }
    ]
}
