{
    "asset" : {
        "generator" : "Khronos glTF Blender I/O v1.8.19",
        "version" : "2.0"
    },
    "scene" : 0,
    "scenes" : [
        {
            "name" : "Scene",
            "nodes" : [
                0
            ]
        }
    ],
    "nodes" : [
        {
            "mesh" : 0,
            "name" : "Curve.030",
            "scale" : [
                250,
                625,
                250
            ],
            "translation" : [
                -12.432586669921875,
                0,
                0
            ]
        }
    ],
    "materials" : [
        {
            "doubleSided" : true,
            "name" : "Material.004",
            "pbrMetallicRoughness" : {
                "baseColorFactor" : [
                    0.8000000715255737,
                    0.0036363888066262007,
                    0.02760743908584118,
                    1
                ],
                "metallicFactor" : 0,
                "roughnessFactor" : 0.5
            }
        }
    ],
    "meshes" : [
        {
            "name" : "Curve.030",
            "primitives" : [
                {
                    "attributes" : {
                        "POSITION" : 0,
                        "NORMAL" : 1,
                        "TEXCOORD_0" : 2
                    },
                    "indices" : 3,
                    "material" : 0
                }
            ]
        }
    ],
    "accessors" : [
        {
            "bufferView" : 0,
            "componentType" : 5126,
            "count" : 4352,
            "max" : [
                0.09170830994844437,
                0.0010000003967434168,
                0.09168493747711182
            ],
            "min" : [
                0.00031015934655442834,
                -0.0010000003967434168,
                0.0002967951586470008
            ],
            "type" : "VEC3"
        },
        {
            "bufferView" : 1,
            "componentType" : 5126,
            "count" : 4352,
            "type" : "VEC3"
        },
        {
            "bufferView" : 2,
            "componentType" : 5126,
            "count" : 4352,
            "type" : "VEC2"
        },
        {
            "bufferView" : 3,
            "componentType" : 5123,
            "count" : 24720,
            "type" : "SCALAR"
        }
    ],
    "bufferViews" : [
        {
            "buffer" : 0,
            "byteLength" : 52224,
            "byteOffset" : 0
        },
        {
            "buffer" : 0,
            "byteLength" : 52224,
            "byteOffset" : 52224
        },
        {
            "buffer" : 0,
            "byteLength" : 34816,
            "byteOffset" : 104448
        },
        {
            "buffer" : 0,
            "byteLength" : 49440,
            "byteOffset" : 139264
        }
    ],
    "buffers" : [
        {
            "byteLength" : 188704,
            "uri" : "data:application/octet-stream;base64,"
        }
    ]
}
