{
    "asset" : {
        "generator" : "Khronos glTF Blender I/O v1.8.19",
        "version" : "2.0"
    },
    "scene" : 0,
    "scenes" : [
        {
            "name" : "Scene",
            "nodes" : [
                0,
                1,
                2,
                3,
                4
            ]
        }
    ],
    "nodes" : [
        {
            "mesh" : 0,
            "name" : "MG_Cells"
        },
        {
            "name" : "MG_Curver_Cyl",
            "rotation" : [
                0.7071068286895752,
                0,
                0,
                0.7071068286895752
            ],
            "scale" : [
                0,
                0,
                0
            ]
        },
        {
            "name" : "MG_Walls"
        },
        {
            "name" : "MG_Curver_Tor",
            "scale" : [
                0,
                0,
                0
            ]
        },
        {
            "mesh" : 1,
            "name" : "MG_Thickness_SW",
            "scale" : [
                10000,
                10000,
                10000
            ]
        }
    ],
    "materials" : [
        {
            "doubleSided" : true,
            "name" : "mat_cells",
            "pbrMetallicRoughness" : {
                "metallicFactor" : 0,
                "roughnessFactor" : 0.5
            }
        }
    ],
    "meshes" : [
        {
            "name" : "MG_Cells",
            "primitives" : [
                {
                    "attributes" : {
                        "POSITION" : 0,
                        "NORMAL" : 1,
                        "COLOR_0" : 2,
                        "COLOR_1" : 3,
                        "COLOR_2" : 4
                    },
                    "indices" : 5,
                    "material" : 0
                }
            ]
        },
        {
            "name" : "MG_Thickness_SW",
            "primitives" : [
                {
                    "attributes" : {
                        "POSITION" : 6,
                        "NORMAL" : 7,
                        "TEXCOORD_0" : 8
                    },
                    "indices" : 9
                }
            ]
        }
    ],
    "accessors" : [
        {
            "bufferView" : 0,
            "componentType" : 5126,
            "count" : 784,
            "max" : [
                7,
                0,
                7
            ],
            "min" : [
                -7,
                0,
                -7
            ],
            "type" : "VEC3"
        },
        {
            "bufferView" : 1,
            "componentType" : 5126,
            "count" : 784,
            "type" : "VEC3"
        },
        {
            "bufferView" : 2,
            "componentType" : 5123,
            "count" : 784,
            "normalized" : true,
            "type" : "VEC4"
        },
        {
            "bufferView" : 3,
            "componentType" : 5123,
            "count" : 784,
            "normalized" : true,
            "type" : "VEC4"
        },
        {
            "bufferView" : 4,
            "componentType" : 5123,
            "count" : 784,
            "normalized" : true,
            "type" : "VEC4"
        },
        {
            "bufferView" : 5,
            "componentType" : 5123,
            "count" : 2364,
            "type" : "SCALAR"
        },
        {
            "bufferView" : 6,
            "componentType" : 5126,
            "count" : 4,
            "max" : [
                1,
                0,
                1
            ],
            "min" : [
                -1,
                0,
                -1
            ],
            "type" : "VEC3"
        },
        {
            "bufferView" : 7,
            "componentType" : 5126,
            "count" : 4,
            "type" : "VEC3"
        },
        {
            "bufferView" : 8,
            "componentType" : 5126,
            "count" : 4,
            "type" : "VEC2"
        },
        {
            "bufferView" : 9,
            "componentType" : 5123,
            "count" : 6,
            "type" : "SCALAR"
        }
    ],
    "bufferViews" : [
        {
            "buffer" : 0,
            "byteLength" : 9408,
            "byteOffset" : 0
        },
        {
            "buffer" : 0,
            "byteLength" : 9408,
            "byteOffset" : 9408
        },
        {
            "buffer" : 0,
            "byteLength" : 6272,
            "byteOffset" : 18816
        },
        {
            "buffer" : 0,
            "byteLength" : 6272,
            "byteOffset" : 25088
        },
        {
            "buffer" : 0,
            "byteLength" : 6272,
            "byteOffset" : 31360
        },
        {
            "buffer" : 0,
            "byteLength" : 4728,
            "byteOffset" : 37632
        },
        {
            "buffer" : 0,
            "byteLength" : 48,
            "byteOffset" : 42360
        },
        {
            "buffer" : 0,
            "byteLength" : 48,
            "byteOffset" : 42408
        },
        {
            "buffer" : 0,
            "byteLength" : 32,
            "byteOffset" : 42456
        },
        {
            "buffer" : 0,
            "byteLength" : 12,
            "byteOffset" : 42488
        }
    ],
    "buffers" : [
        {
            "byteLength" : 42500,
            "uri" : "data:application/octet-stream;base64,"
        }
    ]
}
